<svg xmlns="http://www.w3.org/2000/svg" xmlns:xlink="http://www.w3.org/1999/xlink" width="1920" zoomAndPan="magnify" viewBox="0 0 1440 809.999993" height="1080" preserveAspectRatio="xMidYMid meet" version="1.0"><defs><g/><clipPath id="d0cee5c8bf"><path d="M 2.121094 63.484375 L 616.371094 63.484375 L 616.371094 677.734375 L 2.121094 677.734375 Z M 2.121094 63.484375 " clip-rule="nonzero"/></clipPath><clipPath id="47c762c2cc"><path d="M 302 660 L 317 660 L 317 677.734375 L 302 677.734375 Z M 302 660 " clip-rule="nonzero"/></clipPath></defs><rect x="-144" width="1728" fill="#ffffff" y="-80.999999" height="971.999992" fill-opacity="1"/><rect x="-144" width="1728" fill="#ffffff" y="-80.999999" height="971.999992" fill-opacity="1"/><g clip-path="url(#d0cee5c8bf)"><path fill="#0e606e" d="M 400.285156 289.644531 L 390.207031 289.644531 L 390.207031 112.769531 C 390.207031 106.59375 385.941406 101.554688 380.699219 101.554688 L 237.835938 101.554688 C 232.59375 101.554688 228.328125 106.59375 228.328125 112.769531 L 228.328125 116.671875 C 215.121094 121.179688 202.769531 125.933594 190.210938 132.234375 L 190.210938 112.769531 C 190.214844 86.402344 210.9375 63.484375 237.835938 63.484375 L 380.699219 63.484375 C 407.601562 63.484375 428.324219 86.402344 428.324219 112.769531 L 428.324219 251.574219 L 463.1875 251.574219 L 465.582031 255.109375 C 443.277344 265.589844 421.535156 277.210938 400.285156 289.6875 Z M 70.875 489.640625 L 51.410156 489.640625 C 25.082031 489.640625 2.121094 468.921875 2.121094 442.019531 L 2.121094 299.15625 C 2.121094 272.253906 25.082031 251.535156 51.410156 251.535156 L 190.210938 251.535156 L 190.210938 216.667969 C 202.808594 208.054688 214.226562 200.457031 228.328125 193.996094 L 228.328125 289.644531 L 51.453125 289.644531 C 45.277344 289.644531 40.238281 293.914062 40.238281 299.15625 L 40.238281 442.019531 C 40.238281 447.261719 45.273438 451.53125 51.453125 451.53125 L 55.351562 451.53125 C 59.820312 464.574219 64.738281 477.292969 70.914062 489.644531 Z M 428.28125 608.984375 L 428.28125 628.445312 C 428.28125 654.816406 407.558594 677.734375 380.660156 677.734375 L 237.792969 677.734375 C 223.492188 677.734375 210.894531 671.273438 202.078125 660.910156 C 194.761719 652.296875 190.214844 640.796875 190.214844 628.445312 L 190.214844 489.683594 L 155.351562 489.683594 C 146.734375 477.085938 139.136719 465.667969 132.675781 451.570312 L 228.328125 451.570312 L 228.328125 628.445312 C 228.328125 634.621094 232.632812 639.660156 237.835938 639.660156 L 380.699219 639.660156 C 385.941406 639.660156 390.210938 634.621094 390.210938 628.445312 L 390.210938 624.542969 C 403.253906 620.074219 415.972656 615.160156 428.324219 608.980469 Z M 539.210938 243.851562 C 458.675781 285.582031 349.371094 383.753906 296.386719 451.164062 C 265.589844 410.164062 228.976562 360.265625 190.660156 334.179688 C 229.464844 344.664062 261.160156 365.589844 296.386719 381.273438 C 368.753906 325.28125 452.050781 272.90625 539.210938 243.851562 Z M 293.542969 290.09375 C 308.902344 290.09375 321.375 302.527344 321.375 317.925781 C 321.375 333.285156 308.902344 345.761719 293.542969 345.761719 C 278.183594 345.761719 265.707031 333.289062 265.707031 317.925781 C 265.710938 302.566406 278.144531 290.09375 293.542969 290.09375 Z M 616.371094 299.195312 L 616.371094 442.0625 C 616.371094 468.960938 593.414062 489.683594 567.085938 489.683594 L 428.28125 489.683594 L 428.28125 524.546875 C 415.6875 533.160156 404.265625 540.757812 390.167969 547.21875 L 390.167969 451.570312 L 567.042969 451.570312 C 573.21875 451.570312 578.257812 447.304688 578.257812 442.0625 L 578.257812 299.195312 C 578.257812 293.953125 573.21875 289.6875 567.042969 289.6875 L 563.144531 289.6875 C 559.324219 278.59375 555.382812 268.03125 550.382812 257.34375 L 561.03125 251.574219 L 567.042969 251.574219 C 593.414062 251.574219 616.332031 272.296875 616.332031 299.195312 Z M 616.371094 299.195312 " fill-opacity="1" fill-rule="nonzero"/></g><path fill="#ff9700" d="M 481.269531 247.917969 C 470.949219 233.492188 458.839844 220.367188 445.308594 208.949219 L 445.308594 161.570312 C 473.953125 180.261719 498.617188 204.765625 517.429688 233.289062 C 505.199219 237.757812 493.171875 242.675781 481.269531 247.917969 Z M 510.644531 434.503906 C 517.023438 414.351562 520.476562 392.855469 520.476562 370.585938 C 520.476562 340.316406 514.097656 311.589844 502.679688 285.542969 C 513.449219 278.308594 524.378906 271.523438 535.351562 265.347656 C 550.261719 297.324219 558.59375 332.960938 558.59375 370.546875 C 558.59375 392.652344 555.707031 414.066406 550.34375 434.464844 L 510.6875 434.464844 Z M 245.3125 572.007812 C 265.464844 578.386719 286.960938 581.839844 309.226562 581.839844 C 374.078125 581.839844 432.0625 552.625 470.824219 506.628906 L 518.203125 506.628906 C 472.128906 577.246094 393.910156 619.914062 309.230469 619.914062 C 287.125 619.914062 265.710938 617.027344 245.3125 611.625 L 245.3125 571.964844 Z M 107.808594 306.671875 C 101.429688 326.824219 97.976562 348.320312 97.976562 370.589844 C 97.976562 435.4375 127.191406 493.421875 173.1875 532.1875 L 173.1875 579.566406 C 102.566406 533.488281 59.902344 455.269531 59.902344 370.546875 C 59.902344 348.445312 62.789062 327.03125 68.152344 306.632812 L 107.808594 306.632812 Z M 309.226562 121.222656 C 331.332031 121.222656 352.746094 124.105469 373.144531 129.472656 L 373.144531 169.128906 C 352.992188 162.75 331.496094 159.296875 309.226562 159.296875 C 244.378906 159.296875 186.394531 188.511719 147.628906 234.507812 L 100.25 234.507812 C 146.410156 163.765625 224.75 121.222656 309.269531 121.222656 Z M 309.226562 121.222656 " fill-opacity="1" fill-rule="nonzero"/><g clip-path="url(#47c762c2cc)"><path fill="#333333" d="M 302.230469 677.621094 L 302.238281 677.621094 L 302.386719 677.734375 C 306.882812 671.894531 311.566406 666.070312 316.265625 660.246094 C 311.59375 666.039062 306.710938 671.816406 302.230469 677.621094 Z M 302.230469 677.621094 " fill-opacity="1" fill-rule="nonzero"/></g><g fill="#0e606e" fill-opacity="1"><g transform="translate(628.331351, 458.057731)"><g><path d="M 42.507812 0 L 51.585938 -30.332031 L 107.820312 -30.332031 L 116.898438 0 L 158.960938 0 L 101.179688 -168.925781 L 58.226562 -168.925781 L 0.441406 0 Z M 79.703125 -124.867188 L 97.414062 -64.648438 L 61.992188 -64.648438 Z M 79.703125 -124.867188 "/></g></g></g><g fill="#0e606e" fill-opacity="1"><g transform="translate(782.201383, 458.057731)"><g><path d="M 49.371094 0 L 49.371094 -70.625 C 49.371094 -81.472656 50.921875 -87.671875 54.019531 -91.878906 C 57.339844 -96.527344 62.875 -98.300781 70.625 -98.300781 C 76.824219 -98.300781 81.253906 -96.972656 84.351562 -93.652344 C 88.117188 -89.664062 89.664062 -83.023438 89.664062 -70.625 L 89.664062 0 L 126.859375 0 L 126.859375 -70.183594 C 126.859375 -85.679688 126.859375 -95.644531 121.988281 -106.492188 C 116.898438 -118.003906 106.269531 -128.1875 81.472656 -128.1875 C 68.191406 -128.1875 57.785156 -124.644531 49.371094 -112.027344 L 49.371094 -125.53125 L 12.175781 -125.53125 L 12.175781 0 Z M 49.371094 0 "/></g></g></g><g fill="#0e606e" fill-opacity="1"><g transform="translate(914.81743, 458.057731)"><g/></g></g><g fill="#0e606e" fill-opacity="1"><g transform="translate(966.845435, 458.057731)"><g><path d="M 85.457031 0 C 92.101562 0 115.125 0 131.507812 -12.398438 C 141.027344 -19.703125 148.335938 -33.429688 148.335938 -50.035156 C 148.335938 -70.625 137.265625 -84.351562 117.117188 -88.78125 C 131.730469 -94.757812 139.699219 -108.042969 139.699219 -126.636719 C 139.699219 -138.59375 136.378906 -147.449219 129.738281 -154.3125 C 120.4375 -164.054688 104.5 -168.925781 82.359375 -168.925781 L 13.285156 -168.925781 L 13.285156 0 Z M 52.914062 -133.5 L 73.726562 -133.5 C 85.238281 -133.5 90.992188 -132.394531 94.757812 -129.515625 C 98.300781 -126.859375 100.070312 -122.875 100.070312 -117.339844 C 100.070312 -106.269531 92.984375 -100.734375 79.039062 -100.734375 L 52.914062 -100.734375 Z M 52.914062 -69.738281 L 83.246094 -69.738281 C 99.40625 -69.738281 108.707031 -67.304688 108.707031 -53.355469 C 108.707031 -47.15625 106.933594 -43.171875 103.613281 -40.515625 C 98.519531 -36.308594 90.328125 -35.421875 80.367188 -35.421875 L 52.914062 -35.421875 Z M 52.914062 -69.738281 "/></g></g></g><g fill="#0e606e" fill-opacity="1"><g transform="translate(1116.951723, 458.057731)"><g><path d="M 20.8125 -168.925781 L -15.054688 -168.925781 L 19.261719 -136.824219 L 46.050781 -136.824219 Z M 49.371094 0 L 49.371094 -125.53125 L 12.175781 -125.53125 L 12.175781 0 Z M 49.371094 0 "/></g></g></g><g fill="#0e606e" fill-opacity="1"><g transform="translate(1172.964805, 458.057731)"><g><path d="M 49.371094 0 L 49.371094 -70.625 C 49.371094 -81.472656 50.921875 -87.671875 54.019531 -91.878906 C 57.339844 -96.527344 62.875 -98.300781 70.625 -98.300781 C 76.824219 -98.300781 81.253906 -96.972656 84.351562 -93.652344 C 88.117188 -89.664062 89.664062 -83.023438 89.664062 -70.625 L 89.664062 0 L 126.859375 0 L 126.859375 -70.183594 C 126.859375 -85.679688 126.859375 -95.644531 121.988281 -106.492188 C 116.898438 -118.003906 106.269531 -128.1875 81.472656 -128.1875 C 68.191406 -128.1875 57.785156 -124.644531 49.371094 -112.027344 L 49.371094 -125.53125 L 12.175781 -125.53125 L 12.175781 0 Z M 49.371094 0 "/></g></g></g><g fill="#0e606e" fill-opacity="1"><g transform="translate(1305.580852, 458.057731)"><g><path d="M 49.371094 0 L 49.371094 -70.625 C 49.371094 -81.472656 50.921875 -87.671875 54.019531 -91.878906 C 57.339844 -96.527344 62.875 -98.300781 70.625 -98.300781 C 76.824219 -98.300781 81.253906 -96.972656 84.351562 -93.652344 C 88.117188 -89.664062 89.664062 -83.023438 89.664062 -70.625 L 89.664062 0 L 126.859375 0 L 126.859375 -70.183594 C 126.859375 -85.679688 126.859375 -95.644531 121.988281 -106.492188 C 116.898438 -118.003906 106.269531 -128.1875 81.472656 -128.1875 C 68.191406 -128.1875 57.785156 -124.644531 49.371094 -112.027344 L 49.371094 -168.925781 L 12.175781 -168.925781 L 12.175781 0 Z M 49.371094 0 "/></g></g></g><g fill="#0e606e" fill-opacity="1"><g transform="translate(623.197535, 562.084877)"><g><path d="M 17.640625 0 L 17.640625 -27.085938 C 17.640625 -35.183594 18.894531 -39.425781 21.398438 -42.21875 C 23.039062 -44.242188 25.542969 -45.304688 28.53125 -45.304688 C 34.410156 -45.304688 37.980469 -41.351562 37.980469 -33.542969 L 37.980469 0 L 49.351562 0 L 49.351562 -27.085938 C 49.351562 -34.316406 50.21875 -39.230469 53.113281 -42.414062 C 54.75 -44.242188 57.160156 -45.304688 60.4375 -45.304688 C 66.222656 -45.304688 69.691406 -41.449219 69.691406 -33.542969 L 69.691406 0 L 81.066406 0 L 81.066406 -35.28125 C 81.066406 -47.425781 75.476562 -54.847656 63.234375 -54.847656 C 56.390625 -54.847656 50.703125 -52.4375 47.136719 -45.785156 C 45.304688 -51.859375 39.714844 -54.847656 32.675781 -54.847656 C 27.085938 -54.847656 22.265625 -52.726562 17.640625 -46.558594 L 17.640625 -53.882812 L 6.265625 -53.882812 L 6.265625 0 Z M 17.640625 0 "/></g></g></g><g fill="#0e606e" fill-opacity="1"><g transform="translate(709.95564, 562.084877)"><g><path d="M 30.941406 1.058594 C 45.113281 1.058594 53.304688 -7.519531 56.484375 -17.832031 L 44.726562 -17.832031 C 42.796875 -13.011719 38.074219 -8.867188 31.230469 -8.867188 C 25.0625 -8.867188 19.953125 -12.53125 17.445312 -18.605469 C 16.484375 -20.242188 15.90625 -22.554688 15.617188 -24.578125 L 57.449219 -24.578125 L 57.449219 -27.472656 C 57.449219 -46.171875 44.4375 -54.847656 30.652344 -54.847656 C 12.917969 -54.847656 4.046875 -40.871094 4.046875 -26.699219 C 4.046875 -10.796875 14.84375 1.058594 30.941406 1.058594 Z M 16.289062 -33.542969 C 16.578125 -34.992188 17.0625 -36.917969 18.21875 -38.652344 C 20.917969 -43.183594 25.449219 -45.59375 31.039062 -45.59375 C 36.4375 -45.59375 41.257812 -43.28125 43.859375 -38.652344 C 44.917969 -37.015625 45.402344 -35.085938 45.59375 -33.542969 Z M 16.289062 -33.542969 "/></g></g></g><g fill="#0e606e" fill-opacity="1"><g transform="translate(771.292922, 562.084877)"><g><path d="M 27.953125 1.058594 C 34.703125 1.058594 39.328125 -0.964844 44.050781 -7.324219 L 44.050781 0 L 55.425781 0 L 55.425781 -73.546875 L 44.050781 -73.546875 L 44.050781 -46.558594 C 39.230469 -53.015625 34.507812 -54.847656 27.953125 -54.847656 C 13.785156 -54.847656 4.242188 -43.375 4.242188 -26.894531 C 4.242188 -10.410156 13.785156 1.058594 27.953125 1.058594 Z M 30.265625 -8.773438 C 21.300781 -8.773438 15.710938 -16.484375 15.710938 -26.894531 C 15.710938 -37.304688 21.300781 -45.015625 30.265625 -45.015625 C 39.039062 -45.015625 45.207031 -37.496094 45.207031 -26.894531 C 45.207031 -16.289062 39.039062 -8.773438 30.265625 -8.773438 Z M 30.265625 -8.773438 "/></g></g></g><g fill="#0e606e" fill-opacity="1"><g transform="translate(832.919065, 562.084877)"><g><path d="M 11.953125 -60.824219 C 16.097656 -60.824219 19.375 -63.714844 19.375 -67.765625 C 19.375 -71.8125 16.097656 -74.703125 11.953125 -74.703125 C 7.902344 -74.703125 4.53125 -71.8125 4.53125 -67.765625 C 4.53125 -63.714844 7.902344 -60.824219 11.953125 -60.824219 Z M 17.640625 0 L 17.640625 -53.882812 L 6.265625 -53.882812 L 6.265625 0 Z M 17.640625 0 "/></g></g></g><g fill="#0e606e" fill-opacity="1"><g transform="translate(856.702939, 562.084877)"><g><path d="M 30.84375 1.058594 C 43.570312 1.058594 53.304688 -5.976562 55.8125 -17.832031 L 43.472656 -17.832031 C 42.027344 -12.144531 37.496094 -8.484375 30.84375 -8.484375 C 21.882812 -8.484375 15.617188 -15.90625 15.617188 -27.183594 C 15.617188 -38.074219 21.882812 -45.402344 30.84375 -45.402344 C 36.917969 -45.402344 41.351562 -42.316406 43.183594 -36.917969 L 55.523438 -36.917969 C 53.015625 -47.90625 43.570312 -54.847656 30.84375 -54.847656 C 14.84375 -54.847656 4.046875 -43.375 4.046875 -27.183594 C 4.046875 -10.410156 14.941406 1.058594 30.84375 1.058594 Z M 30.84375 1.058594 "/></g></g></g><g fill="#0e606e" fill-opacity="1"><g transform="translate(915.825549, 562.084877)"><g><path d="M 21.59375 1.058594 C 26.410156 1.058594 30.652344 0.289062 34.027344 -1.929688 C 36.148438 -3.277344 37.980469 -5.207031 39.425781 -7.710938 L 39.425781 0 L 50.796875 0 L 50.796875 -29.207031 C 50.796875 -35.375 50.796875 -43.859375 44.824219 -49.449219 C 40.773438 -53.113281 34.894531 -54.847656 28.628906 -54.847656 C 18.121094 -54.847656 8 -49.0625 6.074219 -36.917969 L 17.445312 -36.917969 C 18.507812 -42.414062 23.132812 -45.691406 28.53125 -45.691406 C 32.003906 -45.691406 34.703125 -44.628906 36.628906 -42.703125 C 38.460938 -40.773438 39.425781 -38.074219 39.519531 -34.410156 L 22.460938 -31.230469 C 17.542969 -30.265625 13.207031 -28.917969 9.929688 -26.507812 C 6.265625 -23.808594 4.046875 -19.953125 4.046875 -14.652344 C 4.046875 -4.625 11.277344 1.058594 21.59375 1.058594 Z M 24.097656 -8.191406 C 18.988281 -8.191406 15.421875 -10.601562 15.421875 -14.941406 C 15.421875 -16.964844 16.097656 -18.507812 17.351562 -19.761719 C 18.988281 -21.300781 21.398438 -22.265625 25.253906 -23.039062 L 39.617188 -25.832031 C 39.617188 -18.121094 37.882812 -13.011719 31.519531 -9.832031 C 29.304688 -8.773438 26.796875 -8.191406 24.097656 -8.191406 Z M 24.097656 -8.191406 "/></g></g></g><g fill="#0e606e" fill-opacity="1"><g transform="translate(972.251983, 562.084877)"><g><path d="M 25.640625 0 L 25.640625 -9.542969 L 22.460938 -9.542969 C 18.410156 -9.542969 17.351562 -11.375 17.351562 -15.421875 L 17.351562 -73.546875 L 5.976562 -73.546875 L 5.976562 -12.433594 C 5.976562 -3.179688 10.601562 0 18.605469 0 Z M 25.640625 0 "/></g></g></g><g fill="#0e606e" fill-opacity="1"><g transform="translate(1000.4652, 562.084877)"><g/></g></g><g fill="#0e606e" fill-opacity="1"><g transform="translate(1026.656285, 562.084877)"><g><path d="M 17.640625 0 L 17.640625 -25.929688 C 17.640625 -34.410156 18.796875 -38.941406 21.398438 -41.835938 C 23.328125 -44.148438 26.121094 -45.304688 30.074219 -45.304688 C 33.351562 -45.304688 35.761719 -44.535156 37.398438 -42.703125 C 39.328125 -40.582031 40.195312 -37.109375 40.195312 -31.519531 L 40.195312 0 L 51.570312 0 L 51.570312 -31.519531 C 51.570312 -36.242188 51.570312 -41.257812 49.257812 -46.074219 C 46.75 -50.992188 42.125 -54.847656 32.773438 -54.847656 C 26.988281 -54.847656 22.363281 -52.917969 17.640625 -46.558594 L 17.640625 -73.546875 L 6.265625 -73.546875 L 6.265625 0 Z M 17.640625 0 "/></g></g></g><g fill="#0e606e" fill-opacity="1"><g transform="translate(1084.045625, 562.084877)"><g><path d="M 31.132812 1.058594 C 47.328125 1.058594 58.316406 -10.601562 58.316406 -27.183594 C 58.316406 -43.375 47.136719 -54.847656 31.132812 -54.847656 C 15.132812 -54.847656 4.046875 -43.375 4.046875 -27.183594 C 4.046875 -10.410156 15.132812 1.058594 31.132812 1.058594 Z M 31.132812 -8.867188 C 22.171875 -8.867188 15.617188 -16.289062 15.617188 -27.183594 C 15.617188 -37.59375 22.074219 -45.015625 31.132812 -45.015625 C 40.195312 -45.015625 46.652344 -37.398438 46.652344 -27.183594 C 46.652344 -16.484375 40.195312 -8.867188 31.132812 -8.867188 Z M 31.132812 -8.867188 "/></g></g></g><g fill="#0e606e" fill-opacity="1"><g transform="translate(1146.345812, 562.084877)"><g><path d="M 28.917969 1.058594 C 42.605469 1.058594 50.605469 -5.785156 50.605469 -16 C 50.605469 -28.242188 39.425781 -30.460938 29.882812 -32.195312 C 22.941406 -33.542969 16.867188 -34.703125 16.867188 -39.617188 C 16.867188 -43.375 20.433594 -45.691406 26.21875 -45.691406 C 32.097656 -45.691406 36.917969 -43.085938 38.558594 -37.015625 L 49.257812 -37.015625 C 47.328125 -48.292969 38.460938 -54.847656 26.21875 -54.847656 C 15.132812 -54.847656 5.785156 -49.835938 5.785156 -39.039062 C 5.785156 -27.277344 16.578125 -25.160156 25.832031 -23.328125 C 32.964844 -21.882812 39.328125 -20.53125 39.328125 -15.039062 C 39.328125 -10.601562 34.992188 -8.191406 28.917969 -8.191406 C 21.398438 -8.191406 16.578125 -11.761719 15.039062 -17.832031 L 3.566406 -17.832031 C 5.398438 -5.011719 16.195312 1.058594 28.917969 1.058594 Z M 28.917969 1.058594 "/></g></g></g><g fill="#0e606e" fill-opacity="1"><g transform="translate(1201.135297, 562.084877)"><g><path d="M 33.738281 -54.945312 C 26.988281 -54.945312 22.363281 -52.917969 17.640625 -46.558594 L 17.640625 -53.882812 L 6.265625 -53.882812 L 6.265625 19.664062 L 17.640625 19.664062 L 17.640625 -7.324219 C 22.460938 -0.867188 27.183594 0.964844 33.738281 0.964844 C 47.90625 0.964844 57.449219 -10.507812 57.449219 -26.988281 C 57.449219 -43.472656 47.90625 -54.945312 33.738281 -54.945312 Z M 31.425781 -45.113281 C 40.386719 -45.113281 45.980469 -37.398438 45.980469 -26.988281 C 45.980469 -16.578125 40.386719 -8.867188 31.425781 -8.867188 C 22.652344 -8.867188 16.484375 -16.386719 16.484375 -26.988281 C 16.484375 -37.59375 22.652344 -45.113281 31.425781 -45.113281 Z M 31.425781 -45.113281 "/></g></g></g><g fill="#0e606e" fill-opacity="1"><g transform="translate(1262.76144, 562.084877)"><g><path d="M 11.953125 -60.824219 C 16.097656 -60.824219 19.375 -63.714844 19.375 -67.765625 C 19.375 -71.8125 16.097656 -74.703125 11.953125 -74.703125 C 7.902344 -74.703125 4.53125 -71.8125 4.53125 -67.765625 C 4.53125 -63.714844 7.902344 -60.824219 11.953125 -60.824219 Z M 17.640625 0 L 17.640625 -53.882812 L 6.265625 -53.882812 L 6.265625 0 Z M 17.640625 0 "/></g></g></g><g fill="#0e606e" fill-opacity="1"><g transform="translate(1286.545314, 562.084877)"><g><path d="M 32.773438 0 L 32.773438 -9.542969 L 27.085938 -9.542969 C 22.363281 -9.542969 21.882812 -12.144531 21.882812 -15.617188 L 21.882812 -44.4375 L 32.871094 -44.4375 L 32.871094 -53.882812 L 21.882812 -53.882812 L 21.882812 -73.546875 L 10.507812 -73.546875 L 10.507812 -53.882812 L 2.410156 -53.882812 L 2.410156 -44.4375 L 10.507812 -44.4375 L 10.507812 -12.433594 C 10.507812 -3.179688 15.132812 0 23.132812 0 Z M 32.773438 0 "/></g></g></g><g fill="#0e606e" fill-opacity="1"><g transform="translate(1322.750635, 562.084877)"><g><path d="M 21.59375 1.058594 C 26.410156 1.058594 30.652344 0.289062 34.027344 -1.929688 C 36.148438 -3.277344 37.980469 -5.207031 39.425781 -7.710938 L 39.425781 0 L 50.796875 0 L 50.796875 -29.207031 C 50.796875 -35.375 50.796875 -43.859375 44.824219 -49.449219 C 40.773438 -53.113281 34.894531 -54.847656 28.628906 -54.847656 C 18.121094 -54.847656 8 -49.0625 6.074219 -36.917969 L 17.445312 -36.917969 C 18.507812 -42.414062 23.132812 -45.691406 28.53125 -45.691406 C 32.003906 -45.691406 34.703125 -44.628906 36.628906 -42.703125 C 38.460938 -40.773438 39.425781 -38.074219 39.519531 -34.410156 L 22.460938 -31.230469 C 17.542969 -30.265625 13.207031 -28.917969 9.929688 -26.507812 C 6.265625 -23.808594 4.046875 -19.953125 4.046875 -14.652344 C 4.046875 -4.625 11.277344 1.058594 21.59375 1.058594 Z M 24.097656 -8.191406 C 18.988281 -8.191406 15.421875 -10.601562 15.421875 -14.941406 C 15.421875 -16.964844 16.097656 -18.507812 17.351562 -19.761719 C 18.988281 -21.300781 21.398438 -22.265625 25.253906 -23.039062 L 39.617188 -25.832031 C 39.617188 -18.121094 37.882812 -13.011719 31.519531 -9.832031 C 29.304688 -8.773438 26.796875 -8.191406 24.097656 -8.191406 Z M 24.097656 -8.191406 "/></g></g></g><g fill="#0e606e" fill-opacity="1"><g transform="translate(1379.177069, 562.084877)"><g><path d="M 25.640625 0 L 25.640625 -9.542969 L 22.460938 -9.542969 C 18.410156 -9.542969 17.351562 -11.375 17.351562 -15.421875 L 17.351562 -73.546875 L 5.976562 -73.546875 L 5.976562 -12.433594 C 5.976562 -3.179688 10.601562 0 18.605469 0 Z M 25.640625 0 "/></g></g></g></svg>