<svg xmlns="http://www.w3.org/2000/svg" xmlns:xlink="http://www.w3.org/1999/xlink" width="1920" zoomAndPan="magnify" viewBox="0 0 1440 809.999993" height="1080" preserveAspectRatio="xMidYMid meet" version="1.0"><defs><g/><clipPath id="11fc93a068"><path d="M 8.121094 103.199219 L 582.621094 103.199219 L 582.621094 677.699219 L 8.121094 677.699219 Z M 8.121094 103.199219 " clip-rule="nonzero"/></clipPath><clipPath id="d11e87970c"><path d="M 288 661 L 302 661 L 302 677.699219 L 288 677.699219 Z M 288 661 " clip-rule="nonzero"/></clipPath></defs><rect x="-144" width="1728" fill="#ffffff" y="-80.999999" height="971.999992" fill-opacity="1"/><rect x="-144" width="1728" fill="#ffffff" y="-80.999999" height="971.999992" fill-opacity="1"/><g clip-path="url(#11fc93a068)"><path fill="#0e606e" d="M 380.519531 314.726562 L 371.09375 314.726562 L 371.09375 149.296875 C 371.09375 143.519531 367.105469 138.808594 362.199219 138.808594 L 228.582031 138.808594 C 223.679688 138.808594 219.6875 143.519531 219.6875 149.296875 L 219.6875 152.945312 C 207.335938 157.164062 195.785156 161.609375 184.039062 167.5 L 184.039062 149.296875 C 184.042969 124.632812 203.421875 103.199219 228.582031 103.199219 L 362.203125 103.199219 C 387.359375 103.199219 406.742188 124.632812 406.742188 149.296875 L 406.742188 279.117188 L 439.347656 279.117188 L 441.589844 282.421875 C 420.726562 292.226562 400.394531 303.097656 380.519531 314.765625 Z M 72.425781 501.78125 L 54.21875 501.78125 C 29.59375 501.78125 8.121094 482.398438 8.121094 457.238281 L 8.121094 323.621094 C 8.121094 298.460938 29.59375 279.078125 54.21875 279.078125 L 184.039062 279.078125 L 184.039062 246.472656 C 195.820312 238.414062 206.5 231.308594 219.6875 225.265625 L 219.6875 314.726562 L 54.257812 314.726562 C 48.484375 314.726562 43.769531 318.714844 43.769531 323.621094 L 43.769531 457.238281 C 43.769531 462.144531 48.480469 466.132812 54.257812 466.132812 L 57.90625 466.132812 C 62.085938 478.332031 66.6875 490.226562 72.464844 501.78125 Z M 406.703125 613.398438 L 406.703125 631.601562 C 406.703125 656.265625 387.320312 677.699219 362.164062 677.699219 L 228.542969 677.699219 C 215.167969 677.699219 203.386719 671.65625 195.136719 661.964844 C 188.296875 653.910156 184.042969 643.152344 184.042969 631.601562 L 184.042969 501.816406 L 151.433594 501.816406 C 143.378906 490.039062 136.269531 479.355469 130.226562 466.171875 L 219.6875 466.171875 L 219.6875 631.601562 C 219.6875 637.375 223.714844 642.089844 228.582031 642.089844 L 362.203125 642.089844 C 367.105469 642.089844 371.09375 637.378906 371.09375 631.601562 L 371.09375 627.953125 C 383.292969 623.773438 395.191406 619.171875 406.742188 613.394531 Z M 510.453125 271.894531 C 435.132812 310.925781 332.902344 402.742188 283.34375 465.792969 C 254.539062 427.445312 220.296875 380.777344 184.460938 356.378906 C 220.753906 366.183594 250.394531 385.753906 283.34375 400.425781 C 351.027344 348.054688 428.9375 299.070312 510.453125 271.894531 Z M 280.683594 315.144531 C 295.050781 315.144531 306.714844 326.773438 306.714844 341.175781 C 306.714844 355.542969 295.050781 367.210938 280.683594 367.210938 C 266.320312 367.210938 254.652344 355.542969 254.652344 341.175781 C 254.652344 326.8125 266.28125 315.144531 280.683594 315.144531 Z M 582.621094 323.65625 L 582.621094 457.277344 C 582.621094 482.4375 561.148438 501.816406 536.523438 501.816406 L 406.703125 501.816406 L 406.703125 534.425781 C 394.921875 542.480469 384.242188 549.589844 371.054688 555.632812 L 371.054688 466.171875 L 536.484375 466.171875 C 542.261719 466.171875 546.976562 462.179688 546.976562 457.277344 L 546.976562 323.65625 C 546.976562 318.753906 542.261719 314.765625 536.484375 314.765625 L 532.835938 314.765625 C 529.265625 304.390625 525.578125 294.507812 520.902344 284.511719 L 530.863281 279.117188 L 536.484375 279.117188 C 561.148438 279.117188 582.582031 298.496094 582.582031 323.65625 Z M 582.621094 323.65625 " fill-opacity="1" fill-rule="nonzero"/></g><path fill="#ff9700" d="M 456.261719 275.695312 C 446.609375 262.207031 435.285156 249.929688 422.628906 239.25 L 422.628906 194.941406 C 449.421875 212.421875 472.488281 235.335938 490.085938 262.015625 C 478.644531 266.195312 467.394531 270.792969 456.261719 275.695312 Z M 483.738281 450.210938 C 489.703125 431.359375 492.933594 411.257812 492.933594 390.429688 C 492.933594 362.117188 486.96875 335.25 476.289062 310.886719 C 486.359375 304.125 496.582031 297.777344 506.84375 292 C 520.792969 321.910156 528.582031 355.238281 528.582031 390.390625 C 528.582031 411.066406 525.882812 431.09375 520.867188 450.171875 L 483.773438 450.171875 Z M 235.574219 578.8125 C 254.421875 584.78125 274.527344 588.011719 295.355469 588.011719 C 356.007812 588.011719 410.238281 560.6875 446.496094 517.667969 L 490.808594 517.667969 C 447.710938 583.714844 374.554688 623.621094 295.355469 623.621094 C 274.679688 623.621094 254.652344 620.921875 235.574219 615.867188 L 235.574219 578.777344 Z M 106.96875 330.648438 C 101.003906 349.5 97.773438 369.605469 97.773438 390.429688 C 97.773438 451.082031 125.097656 505.316406 168.117188 541.570312 L 168.117188 585.882812 C 102.066406 542.789062 62.164062 469.632812 62.164062 390.390625 C 62.164062 369.71875 64.863281 349.691406 69.878906 330.613281 L 106.96875 330.613281 Z M 295.355469 157.203125 C 316.027344 157.203125 336.054688 159.898438 355.132812 164.917969 L 355.132812 202.007812 C 336.285156 196.042969 316.179688 192.8125 295.355469 192.8125 C 234.699219 192.8125 180.46875 220.136719 144.214844 263.15625 L 99.902344 263.15625 C 143.074219 196.992188 216.34375 157.203125 295.390625 157.203125 Z M 295.355469 157.203125 " fill-opacity="1" fill-rule="nonzero"/><g clip-path="url(#d11e87970c)"><path fill="#333333" d="M 288.808594 677.59375 L 288.820312 677.59375 L 288.953125 677.699219 C 293.160156 672.238281 297.542969 666.792969 301.9375 661.339844 C 297.566406 666.761719 293 672.164062 288.808594 677.59375 Z M 288.808594 677.59375 " fill-opacity="1" fill-rule="nonzero"/></g><g fill="#0e606e" fill-opacity="1"><g transform="translate(641.775454, 459.273487)"><g><path d="M 41.507812 0 L 50.371094 -29.617188 L 105.28125 -29.617188 L 114.144531 0 L 155.21875 0 L 98.792969 -164.945312 L 56.855469 -164.945312 L 0.433594 0 Z M 77.824219 -121.925781 L 95.117188 -63.125 L 60.53125 -63.125 Z M 77.824219 -121.925781 "/></g></g></g><g fill="#0e606e" fill-opacity="1"><g transform="translate(792.020212, 459.273487)"><g><path d="M 48.207031 0 L 48.207031 -68.960938 C 48.207031 -79.554688 49.722656 -85.605469 52.746094 -89.714844 C 55.992188 -94.253906 61.394531 -95.984375 68.960938 -95.984375 C 75.015625 -95.984375 79.339844 -94.6875 82.363281 -91.445312 C 86.039062 -87.554688 87.554688 -81.066406 87.554688 -68.960938 L 87.554688 0 L 123.871094 0 L 123.871094 -68.527344 C 123.871094 -83.660156 123.871094 -93.390625 119.113281 -103.984375 C 114.144531 -115.222656 103.765625 -125.167969 79.554688 -125.167969 C 66.582031 -125.167969 56.421875 -121.710938 48.207031 -109.386719 L 48.207031 -122.574219 L 11.890625 -122.574219 L 11.890625 0 Z M 48.207031 0 "/></g></g></g><g fill="#0e606e" fill-opacity="1"><g transform="translate(921.511741, 459.273487)"><g/></g></g><g fill="#0e606e" fill-opacity="1"><g transform="translate(972.313934, 459.273487)"><g><path d="M 83.445312 0 C 89.929688 0 112.414062 0 128.410156 -12.105469 C 137.707031 -19.238281 144.839844 -32.644531 144.839844 -48.855469 C 144.839844 -68.960938 134.03125 -82.363281 114.359375 -86.6875 C 128.625 -92.523438 136.410156 -105.496094 136.410156 -123.65625 C 136.410156 -135.328125 133.167969 -143.976562 126.679688 -150.675781 C 117.601562 -160.1875 102.035156 -164.945312 80.417969 -164.945312 L 12.972656 -164.945312 L 12.972656 0 Z M 51.667969 -130.355469 L 71.988281 -130.355469 C 83.230469 -130.355469 88.851562 -129.277344 92.523438 -126.464844 C 95.984375 -123.871094 97.714844 -119.980469 97.714844 -114.574219 C 97.714844 -103.765625 90.796875 -98.363281 77.175781 -98.363281 L 51.667969 -98.363281 Z M 51.667969 -68.097656 L 81.285156 -68.097656 C 97.066406 -68.097656 106.144531 -65.71875 106.144531 -52.097656 C 106.144531 -46.046875 104.414062 -42.15625 101.171875 -39.5625 C 96.199219 -35.453125 88.203125 -34.589844 78.472656 -34.589844 L 51.667969 -34.589844 Z M 51.667969 -68.097656 "/></g></g></g><g fill="#0e606e" fill-opacity="1"><g transform="translate(1118.883623, 459.273487)"><g><path d="M 20.320312 -164.945312 L -14.699219 -164.945312 L 18.808594 -133.597656 L 44.964844 -133.597656 Z M 48.207031 0 L 48.207031 -122.574219 L 11.890625 -122.574219 L 11.890625 0 Z M 48.207031 0 "/></g></g></g><g fill="#0e606e" fill-opacity="1"><g transform="translate(1173.577001, 459.273487)"><g><path d="M 48.207031 0 L 48.207031 -68.960938 C 48.207031 -79.554688 49.722656 -85.605469 52.746094 -89.714844 C 55.992188 -94.253906 61.394531 -95.984375 68.960938 -95.984375 C 75.015625 -95.984375 79.339844 -94.6875 82.363281 -91.445312 C 86.039062 -87.554688 87.554688 -81.066406 87.554688 -68.960938 L 87.554688 0 L 123.871094 0 L 123.871094 -68.527344 C 123.871094 -83.660156 123.871094 -93.390625 119.113281 -103.984375 C 114.144531 -115.222656 103.765625 -125.167969 79.554688 -125.167969 C 66.582031 -125.167969 56.421875 -121.710938 48.207031 -109.386719 L 48.207031 -122.574219 L 11.890625 -122.574219 L 11.890625 0 Z M 48.207031 0 "/></g></g></g><g fill="#0e606e" fill-opacity="1"><g transform="translate(1303.068531, 459.273487)"><g><path d="M 48.207031 0 L 48.207031 -68.960938 C 48.207031 -79.554688 49.722656 -85.605469 52.746094 -89.714844 C 55.992188 -94.253906 61.394531 -95.984375 68.960938 -95.984375 C 75.015625 -95.984375 79.339844 -94.6875 82.363281 -91.445312 C 86.039062 -87.554688 87.554688 -81.066406 87.554688 -68.960938 L 87.554688 0 L 123.871094 0 L 123.871094 -68.527344 C 123.871094 -83.660156 123.871094 -93.390625 119.113281 -103.984375 C 114.144531 -115.222656 103.765625 -125.167969 79.554688 -125.167969 C 66.582031 -125.167969 56.421875 -121.710938 48.207031 -109.386719 L 48.207031 -164.945312 L 11.890625 -164.945312 L 11.890625 0 Z M 48.207031 0 "/></g></g></g><g fill="#0e606e" fill-opacity="1"><g transform="translate(648.078838, 556.870063)"><g><path d="M 13.183594 0 L 13.183594 -20.242188 C 13.183594 -26.292969 14.121094 -29.464844 15.992188 -31.554688 C 17.21875 -33.066406 19.089844 -33.859375 21.324219 -33.859375 C 25.71875 -33.859375 28.382812 -30.90625 28.382812 -25.070312 L 28.382812 0 L 36.882812 0 L 36.882812 -20.242188 C 36.882812 -25.644531 37.53125 -29.320312 39.695312 -31.695312 C 40.917969 -33.066406 42.71875 -33.859375 45.167969 -33.859375 C 49.492188 -33.859375 52.085938 -30.976562 52.085938 -25.070312 L 52.085938 0 L 60.585938 0 L 60.585938 -26.367188 C 60.585938 -35.441406 56.40625 -40.992188 47.257812 -40.992188 C 42.144531 -40.992188 37.894531 -39.1875 35.226562 -34.21875 C 33.859375 -38.757812 29.679688 -40.992188 24.421875 -40.992188 C 20.242188 -40.992188 16.640625 -39.40625 13.183594 -34.792969 L 13.183594 -40.269531 L 4.683594 -40.269531 L 4.683594 0 Z M 13.183594 0 "/></g></g></g><g fill="#0e606e" fill-opacity="1"><g transform="translate(712.9178, 556.870063)"><g><path d="M 23.125 0.792969 C 33.714844 0.792969 39.835938 -5.617188 42.214844 -13.328125 L 33.425781 -13.328125 C 31.984375 -9.726562 28.457031 -6.628906 23.339844 -6.628906 C 18.730469 -6.628906 14.910156 -9.363281 13.039062 -13.902344 C 12.320312 -15.128906 11.886719 -16.855469 11.671875 -18.371094 L 42.933594 -18.371094 L 42.933594 -20.53125 C 42.933594 -34.507812 33.210938 -40.992188 22.910156 -40.992188 C 9.652344 -40.992188 3.027344 -30.542969 3.027344 -19.953125 C 3.027344 -8.070312 11.09375 0.792969 23.125 0.792969 Z M 12.175781 -25.070312 C 12.390625 -26.148438 12.75 -27.589844 13.617188 -28.886719 C 15.632812 -32.273438 19.019531 -34.074219 23.195312 -34.074219 C 27.230469 -34.074219 30.832031 -32.34375 32.777344 -28.886719 C 33.570312 -27.664062 33.929688 -26.222656 34.074219 -25.070312 Z M 12.175781 -25.070312 "/></g></g></g><g fill="#0e606e" fill-opacity="1"><g transform="translate(758.758424, 556.870063)"><g><path d="M 20.890625 0.792969 C 25.933594 0.792969 29.390625 -0.71875 32.921875 -5.476562 L 32.921875 0 L 41.421875 0 L 41.421875 -54.964844 L 32.921875 -54.964844 L 32.921875 -34.792969 C 29.320312 -39.621094 25.789062 -40.992188 20.890625 -40.992188 C 10.300781 -40.992188 3.167969 -32.417969 3.167969 -20.097656 C 3.167969 -7.78125 10.300781 0.792969 20.890625 0.792969 Z M 22.621094 -6.554688 C 15.921875 -6.554688 11.742188 -12.320312 11.742188 -20.097656 C 11.742188 -27.878906 15.921875 -33.640625 22.621094 -33.640625 C 29.175781 -33.640625 33.785156 -28.023438 33.785156 -20.097656 C 33.785156 -12.175781 29.175781 -6.554688 22.621094 -6.554688 Z M 22.621094 -6.554688 "/></g></g></g><g fill="#0e606e" fill-opacity="1"><g transform="translate(804.81493, 556.870063)"><g><path d="M 8.933594 -45.457031 C 12.03125 -45.457031 14.480469 -47.617188 14.480469 -50.644531 C 14.480469 -53.667969 12.03125 -55.832031 8.933594 -55.832031 C 5.90625 -55.832031 3.386719 -53.667969 3.386719 -50.644531 C 3.386719 -47.617188 5.90625 -45.457031 8.933594 -45.457031 Z M 13.183594 0 L 13.183594 -40.269531 L 4.683594 -40.269531 L 4.683594 0 Z M 13.183594 0 "/></g></g></g><g fill="#0e606e" fill-opacity="1"><g transform="translate(822.589889, 556.870063)"><g><path d="M 23.050781 0.792969 C 32.5625 0.792969 39.835938 -4.464844 41.710938 -13.328125 L 32.488281 -13.328125 C 31.410156 -9.078125 28.023438 -6.339844 23.050781 -6.339844 C 16.351562 -6.339844 11.671875 -11.886719 11.671875 -20.316406 C 11.671875 -28.457031 16.351562 -33.929688 23.050781 -33.929688 C 27.589844 -33.929688 30.90625 -31.625 32.273438 -27.589844 L 41.496094 -27.589844 C 39.621094 -35.804688 32.5625 -40.992188 23.050781 -40.992188 C 11.09375 -40.992188 3.027344 -32.417969 3.027344 -20.316406 C 3.027344 -7.78125 11.167969 0.792969 23.050781 0.792969 Z M 23.050781 0.792969 "/></g></g></g><g fill="#0e606e" fill-opacity="1"><g transform="translate(866.775371, 556.870063)"><g><path d="M 16.136719 0.792969 C 19.738281 0.792969 22.910156 0.214844 25.429688 -1.441406 C 27.015625 -2.449219 28.382812 -3.890625 29.464844 -5.761719 L 29.464844 0 L 37.964844 0 L 37.964844 -21.828125 C 37.964844 -26.4375 37.964844 -32.777344 33.5 -36.957031 C 30.472656 -39.695312 26.078125 -40.992188 21.394531 -40.992188 C 13.542969 -40.992188 5.980469 -36.667969 4.539062 -27.589844 L 13.039062 -27.589844 C 13.832031 -31.695312 17.289062 -34.148438 21.324219 -34.148438 C 23.917969 -34.148438 25.933594 -33.355469 27.375 -31.914062 C 28.742188 -30.472656 29.464844 -28.457031 29.535156 -25.71875 L 16.785156 -23.339844 C 13.109375 -22.621094 9.871094 -21.613281 7.421875 -19.8125 C 4.683594 -17.792969 3.027344 -14.910156 3.027344 -10.949219 C 3.027344 -3.457031 8.429688 0.792969 16.136719 0.792969 Z M 18.011719 -6.125 C 14.191406 -6.125 11.527344 -7.925781 11.527344 -11.167969 C 11.527344 -12.679688 12.03125 -13.832031 12.96875 -14.769531 C 14.191406 -15.921875 15.992188 -16.640625 18.875 -17.21875 L 29.609375 -19.304688 C 29.609375 -13.542969 28.3125 -9.726562 23.558594 -7.347656 C 21.898438 -6.554688 20.027344 -6.125 18.011719 -6.125 Z M 18.011719 -6.125 "/></g></g></g><g fill="#0e606e" fill-opacity="1"><g transform="translate(908.945857, 556.870063)"><g><path d="M 19.164062 0 L 19.164062 -7.132812 L 16.785156 -7.132812 C 13.757812 -7.132812 12.96875 -8.5 12.96875 -11.527344 L 12.96875 -54.964844 L 4.464844 -54.964844 L 4.464844 -9.292969 C 4.464844 -2.378906 7.925781 0 13.902344 0 Z M 19.164062 0 "/></g></g></g><g fill="#0e606e" fill-opacity="1"><g transform="translate(930.0311, 556.870063)"><g/></g></g><g fill="#0e606e" fill-opacity="1"><g transform="translate(949.605095, 556.870063)"><g><path d="M 13.183594 0 L 13.183594 -19.378906 C 13.183594 -25.71875 14.046875 -29.105469 15.992188 -31.265625 C 17.433594 -32.992188 19.523438 -33.859375 22.476562 -33.859375 C 24.925781 -33.859375 26.726562 -33.28125 27.953125 -31.914062 C 29.390625 -30.328125 30.039062 -27.734375 30.039062 -23.558594 L 30.039062 0 L 38.539062 0 L 38.539062 -23.558594 C 38.539062 -27.085938 38.539062 -30.832031 36.8125 -34.433594 C 34.9375 -38.109375 31.480469 -40.992188 24.492188 -40.992188 C 20.171875 -40.992188 16.714844 -39.550781 13.183594 -34.792969 L 13.183594 -54.964844 L 4.683594 -54.964844 L 4.683594 0 Z M 13.183594 0 "/></g></g></g><g fill="#0e606e" fill-opacity="1"><g transform="translate(992.495211, 556.870063)"><g><path d="M 23.269531 0.792969 C 35.371094 0.792969 43.582031 -7.925781 43.582031 -20.316406 C 43.582031 -32.417969 35.226562 -40.992188 23.269531 -40.992188 C 11.308594 -40.992188 3.027344 -32.417969 3.027344 -20.316406 C 3.027344 -7.78125 11.308594 0.792969 23.269531 0.792969 Z M 23.269531 -6.628906 C 16.570312 -6.628906 11.671875 -12.175781 11.671875 -20.316406 C 11.671875 -28.09375 16.496094 -33.640625 23.269531 -33.640625 C 30.039062 -33.640625 34.867188 -27.953125 34.867188 -20.316406 C 34.867188 -12.320312 30.039062 -6.628906 23.269531 -6.628906 Z M 23.269531 -6.628906 "/></g></g></g><g fill="#0e606e" fill-opacity="1"><g transform="translate(1039.055466, 556.870063)"><g><path d="M 21.613281 0.792969 C 31.839844 0.792969 37.820312 -4.324219 37.820312 -11.957031 C 37.820312 -21.109375 29.464844 -22.765625 22.332031 -24.0625 C 17.144531 -25.070312 12.605469 -25.933594 12.605469 -29.609375 C 12.605469 -32.417969 15.273438 -34.148438 19.59375 -34.148438 C 23.988281 -34.148438 27.589844 -32.203125 28.816406 -27.664062 L 36.8125 -27.664062 C 35.371094 -36.089844 28.742188 -40.992188 19.59375 -40.992188 C 11.308594 -40.992188 4.324219 -37.246094 4.324219 -29.175781 C 4.324219 -20.386719 12.390625 -18.800781 19.304688 -17.433594 C 24.636719 -16.351562 29.390625 -15.34375 29.390625 -11.238281 C 29.390625 -7.925781 26.148438 -6.125 21.613281 -6.125 C 15.992188 -6.125 12.390625 -8.789062 11.238281 -13.328125 L 2.664062 -13.328125 C 4.035156 -3.746094 12.101562 0.792969 21.613281 0.792969 Z M 21.613281 0.792969 "/></g></g></g><g fill="#0e606e" fill-opacity="1"><g transform="translate(1080.002573, 556.870063)"><g><path d="M 25.214844 -41.0625 C 20.171875 -41.0625 16.714844 -39.550781 13.183594 -34.792969 L 13.183594 -40.269531 L 4.683594 -40.269531 L 4.683594 14.695312 L 13.183594 14.695312 L 13.183594 -5.476562 C 16.785156 -0.648438 20.316406 0.71875 25.214844 0.71875 C 35.804688 0.71875 42.933594 -7.851562 42.933594 -20.171875 C 42.933594 -32.488281 35.804688 -41.0625 25.214844 -41.0625 Z M 23.484375 -33.714844 C 30.183594 -33.714844 34.363281 -27.953125 34.363281 -20.171875 C 34.363281 -12.390625 30.183594 -6.628906 23.484375 -6.628906 C 16.929688 -6.628906 12.320312 -12.246094 12.320312 -20.171875 C 12.320312 -28.09375 16.929688 -33.714844 23.484375 -33.714844 Z M 23.484375 -33.714844 "/></g></g></g><g fill="#0e606e" fill-opacity="1"><g transform="translate(1126.059079, 556.870063)"><g><path d="M 8.933594 -45.457031 C 12.03125 -45.457031 14.480469 -47.617188 14.480469 -50.644531 C 14.480469 -53.667969 12.03125 -55.832031 8.933594 -55.832031 C 5.90625 -55.832031 3.386719 -53.667969 3.386719 -50.644531 C 3.386719 -47.617188 5.90625 -45.457031 8.933594 -45.457031 Z M 13.183594 0 L 13.183594 -40.269531 L 4.683594 -40.269531 L 4.683594 0 Z M 13.183594 0 "/></g></g></g><g fill="#0e606e" fill-opacity="1"><g transform="translate(1143.834037, 556.870063)"><g><path d="M 24.492188 0 L 24.492188 -7.132812 L 20.242188 -7.132812 C 16.714844 -7.132812 16.351562 -9.078125 16.351562 -11.671875 L 16.351562 -33.210938 L 24.566406 -33.210938 L 24.566406 -40.269531 L 16.351562 -40.269531 L 16.351562 -54.964844 L 7.851562 -54.964844 L 7.851562 -40.269531 L 1.800781 -40.269531 L 1.800781 -33.210938 L 7.851562 -33.210938 L 7.851562 -9.292969 C 7.851562 -2.378906 11.308594 0 17.289062 0 Z M 24.492188 0 "/></g></g></g><g fill="#0e606e" fill-opacity="1"><g transform="translate(1170.892206, 556.870063)"><g><path d="M 16.136719 0.792969 C 19.738281 0.792969 22.910156 0.214844 25.429688 -1.441406 C 27.015625 -2.449219 28.382812 -3.890625 29.464844 -5.761719 L 29.464844 0 L 37.964844 0 L 37.964844 -21.828125 C 37.964844 -26.4375 37.964844 -32.777344 33.5 -36.957031 C 30.472656 -39.695312 26.078125 -40.992188 21.394531 -40.992188 C 13.542969 -40.992188 5.980469 -36.667969 4.539062 -27.589844 L 13.039062 -27.589844 C 13.832031 -31.695312 17.289062 -34.148438 21.324219 -34.148438 C 23.917969 -34.148438 25.933594 -33.355469 27.375 -31.914062 C 28.742188 -30.472656 29.464844 -28.457031 29.535156 -25.71875 L 16.785156 -23.339844 C 13.109375 -22.621094 9.871094 -21.613281 7.421875 -19.8125 C 4.683594 -17.792969 3.027344 -14.910156 3.027344 -10.949219 C 3.027344 -3.457031 8.429688 0.792969 16.136719 0.792969 Z M 18.011719 -6.125 C 14.191406 -6.125 11.527344 -7.925781 11.527344 -11.167969 C 11.527344 -12.679688 12.03125 -13.832031 12.96875 -14.769531 C 14.191406 -15.921875 15.992188 -16.640625 18.875 -17.21875 L 29.609375 -19.304688 C 29.609375 -13.542969 28.3125 -9.726562 23.558594 -7.347656 C 21.898438 -6.554688 20.027344 -6.125 18.011719 -6.125 Z M 18.011719 -6.125 "/></g></g></g><g fill="#0e606e" fill-opacity="1"><g transform="translate(1213.062691, 556.870063)"><g><path d="M 19.164062 0 L 19.164062 -7.132812 L 16.785156 -7.132812 C 13.757812 -7.132812 12.96875 -8.5 12.96875 -11.527344 L 12.96875 -54.964844 L 4.464844 -54.964844 L 4.464844 -9.292969 C 4.464844 -2.378906 7.925781 0 13.902344 0 Z M 19.164062 0 "/></g></g></g></svg>